<svg width="237" height="234" viewBox="0 0 237 234" xmlns="http://www.w3.org/2000/svg">
  <path fill="#ff951c" d="M176.58 189.37C143.18 189.37 194.6.04 194.6.04L160.2 0s-14.1 44.56-23.4 94.07h-29.66c.78-10.18 1.15-20.48.98-30.73-1.34-81.5-49.08-66.4-70.45-47.7C17.35 33.42.33 67.2 0 93.24c3.24-.17 16.03-.22 16.03-.22S26.66 44.5 60.06 44.5s-18.1 189.33-18.1 189.33l34.43.02s17.78-50.68 26.63-107.28l28.33-.17c-1.65 14.65-2.17 30.83-1.93 45.85 1.34 81.5 48.9 64.02 70.27 45.3 21.37-18.7 37.32-58.2 37.12-77.17.03-.02-16.23.13-16.43.13.05 1.5-10.42 48.87-43.82 48.87z" fill-rule="nonzero"/>
</svg>
